<svg width="70" height="56" viewBox="0 0 70 56" fill="none" xmlns="http://www.w3.org/2000/svg">
<path d="M58.9167 0.181641H11.0834C8.3649 0.181641 5.75778 1.27911 3.83553 3.23261C1.91328 5.18612 0.833374 7.83564 0.833374 10.5983V45.3205C0.833374 48.0832 1.91328 50.7327 3.83553 52.6862C5.75778 54.6397 8.3649 55.7372 11.0834 55.7372H58.9167C61.6352 55.7372 64.2423 54.6397 66.1646 52.6862C68.0868 50.7327 69.1667 48.0832 69.1667 45.3205V10.5983C69.1667 7.83564 68.0868 5.18612 66.1646 3.23261C64.2423 1.27911 61.6352 0.181641 58.9167 0.181641ZM58.9167 7.12608L36.7084 22.6469C36.189 22.9517 35.5998 23.1121 35 23.1121C34.4003 23.1121 33.8111 22.9517 33.2917 22.6469L11.0834 7.12608H58.9167Z" fill="#F87575"/>
</svg>
